<?xml version="1.0" encoding="UTF-8" standalone="no"?>
<!-- Created with Inkscape (http://www.inkscape.org/) -->

<svg
   xmlns:dc="http://purl.org/dc/elements/1.1/"
   xmlns:cc="http://creativecommons.org/ns#"
   xmlns:rdf="http://www.w3.org/1999/02/22-rdf-syntax-ns#"
   xmlns:svg="http://www.w3.org/2000/svg"
   xmlns="http://www.w3.org/2000/svg"
   xmlns:xlink="http://www.w3.org/1999/xlink"
   version="1.0"
   width="22"
   height="22"
   viewBox="0 0 16 16"
   id="Foreground"
   xml:space="preserve"><metadata
   id="metadata32"><rdf:RDF><cc:Work
       rdf:about=""><dc:format>image/svg+xml</dc:format><dc:type
         rdf:resource="http://purl.org/dc/dcmitype/StillImage" /><dc:title></dc:title></cc:Work></rdf:RDF></metadata><defs
   id="defs2397"><linearGradient
     id="linearGradient4449"><stop
       id="stop4451"
       style="stop-color:#ffffff;stop-opacity:1"
       offset="0" /><stop
       id="stop4453"
       style="stop-color:#ffffff;stop-opacity:0"
       offset="1" /></linearGradient><linearGradient
     id="linearGradient4419"><stop
       id="stop4421"
       style="stop-color:#292929;stop-opacity:0.86082476"
       offset="0" /><stop
       id="stop4423"
       style="stop-color:#676767;stop-opacity:1"
       offset="1" /></linearGradient><linearGradient
     id="linearGradient3604"><stop
       id="stop3606"
       style="stop-color:#ffffff;stop-opacity:1"
       offset="0" /><stop
       id="stop3608"
       style="stop-color:#ffffff;stop-opacity:0"
       offset="1" /></linearGradient><radialGradient
     cx="76.116898"
     cy="42.720196"
     r="35"
     fx="76.116898"
     fy="42.720196"
     id="radialGradient4388"
     xlink:href="#linearGradient3604"
     gradientUnits="userSpaceOnUse"
     gradientTransform="matrix(1.0262217e-8,0.25237387,-0.20912257,0.00424599,16.980122,-17.843647)" /><linearGradient
     x1="11.032335"
     y1="63.589962"
     x2="30.257067"
     y2="37.692554"
     id="linearGradient4391"
     xlink:href="#linearGradient4419"
     gradientUnits="userSpaceOnUse"
     gradientTransform="matrix(0.21848126,0,0,0.21534648,0.42168098,0.49331269)" /><linearGradient
     x1="25.409628"
     y1="1.8800253"
     x2="25.697206"
     y2="8.8212938"
     id="linearGradient4455"
     xlink:href="#linearGradient4449"
     gradientUnits="userSpaceOnUse"
     gradientTransform="matrix(0.90959094,0,0,0.91156264,-11.324106,-0.10199782)" /></defs>

<g
   transform="matrix(1.0405157,0,0,1.0251195,0.94740757,-1.5276931)"
   id="g3707"
   style="opacity:0.63513513;stroke:#ffffff;stroke-opacity:1"><g
     transform="translate(-1.2664093,2.4710425)"
     id="g3695"
     style="stroke:#ffffff;stroke-opacity:1" /><g
     transform="translate(-1.2664093,2.4710425)"
     id="g3701"
     style="stroke:#ffffff;stroke-opacity:1" /></g><g
   transform="matrix(1.0838509,0,0,1.0355382,32.878751,-0.24399471)"
   id="g3721"
   style="opacity:0.77830188" /><g
   transform="matrix(1.0838509,0,0,1.0355382,31.12875,0.06850529)"
   id="g3715"
   style="opacity:0.77830188" />



<rect
   width="15.293691"
   height="15.074254"
   rx="0.87392509"
   ry="0.86138594"
   x="0.36887601"
   y="0.44048721"
   id="rect3590"
   style="fill:#b7b7b7;fill-opacity:0.43902438;stroke:#ffffff;stroke-width:0.73933637;stroke-miterlimit:1.39999998;stroke-opacity:1;stroke-dasharray:none" /><rect
   width="14.33915"
   height="14.06691"
   rx="0.19449067"
   ry="0.20610654"
   x="0.84614599"
   y="0.91775709"
   id="rect3803"
   style="opacity:0.45;fill:none;stroke:#000000;stroke-width:0.47266766;stroke-miterlimit:1.39999998;stroke-opacity:1;stroke-dasharray:none" /><rect
   width="15.44873"
   height="14.67344"
   rx="0.88278461"
   ry="0.83848238"
   x="0.27039239"
   y="1.1266288"
   id="rect3612"
   style="opacity:0.69458127;fill:#ffffff;fill-opacity:0;stroke:none" /><g
   transform="scale(1.1677376,0.85635677)"
   id="text4441"
   style="font-size:10.59644604px;font-style:normal;font-variant:normal;font-weight:bold;font-stretch:normal;fill:#fbfbfb;fill-opacity:0.65979381;stroke:none;font-family:URW Gothic L;-inkscape-font-specification:Andale Mono Bold"><path
     d="m 3.3392223,13.550901 1.7272207,0 1.8225888,-2.702093 1.8755709,2.702093 1.6848353,0 -2.7126906,-3.8994917 2.7126906,-3.9312815 -1.6848353,0 -1.8755709,2.7338831 -1.8225888,-2.7338831 -1.7272207,0 2.6914973,3.9312815 -2.6914973,3.8994917"
     id="path4002" /></g><g
   transform="scale(1.1650569,0.85832717)"
   id="text4437"
   style="font-size:10.2138176px;font-style:normal;font-variant:normal;font-weight:bold;font-stretch:normal;fill:#434343;fill-opacity:1;stroke:none;font-family:URW Gothic L;-inkscape-font-specification:Andale Mono Bold"><path
     d="m 3.4700146,12.817934 1.6648523,0 1.7567766,-2.604523 1.8078457,2.604523 1.6239968,0 -2.6147371,-3.7586848 2.6147371,-3.7893264 -1.6239968,0 -1.8078457,2.635165 -1.7567766,-2.635165 -1.6648523,0 2.5943097,3.7893264 -2.5943097,3.7586848"
     id="path3999" /></g><rect
   width="15.293691"
   height="15.074254"
   rx="0.87392509"
   ry="0.86138594"
   x="0.34247351"
   y="0.38768226"
   id="rect3789"
   style="fill:none;stroke:#ffffff;stroke-width:0.73933637;stroke-miterlimit:1.39999998;stroke-opacity:0.71219512;stroke-dasharray:none" /><rect
   width="15.44873"
   height="14.67344"
   rx="0.88278461"
   ry="0.83848238"
   x="0.27039239"
   y="1.1266288"
   id="rect3793"
   style="opacity:0.69458127;fill:#ffffff;fill-opacity:0;stroke:none" /><g
   transform="scale(1.1677376,0.85635677)"
   id="g3795"
   style="font-size:10.59644604px;font-style:normal;font-variant:normal;font-weight:bold;font-stretch:normal;fill:#fbfbfb;fill-opacity:0.65979381;stroke:none;font-family:URW Gothic L;-inkscape-font-specification:Andale Mono Bold"><path
     d="m 3.3392223,13.550901 1.7272207,0 1.8225888,-2.702093 1.8755709,2.702093 1.6848353,0 -2.7126906,-3.8994917 2.7126906,-3.9312815 -1.6848353,0 -1.8755709,2.7338831 -1.8225888,-2.7338831 -1.7272207,0 2.6914973,3.9312815 -2.6914973,3.8994917"
     id="path3797" /></g><g
   transform="matrix(1.1650569,0,0,0.85832717,0.05280528,0.05280528)"
   id="g3799"
   style="font-size:10.2138176px;font-style:normal;font-variant:normal;font-weight:bold;font-stretch:normal;fill:#434343;fill-opacity:1;stroke:none;font-family:URW Gothic L;-inkscape-font-specification:Andale Mono Bold"><path
     d="m 3.4700146,12.817934 1.6648523,0 1.7567766,-2.604523 1.8078457,2.604523 1.6239968,0 -2.6147371,-3.7586848 2.6147371,-3.7893264 -1.6239968,0 -1.8078457,2.635165 -1.7567766,-2.635165 -1.6648523,0 2.5943097,3.7893264 -2.5943097,3.7586848"
     id="path3801" /></g><rect
   width="13.454835"
   height="13.173423"
   rx="0.14240253"
   ry="0.17978027"
   x="1.2705184"
   y="1.3777013"
   id="rect3829"
   style="opacity:0.3;fill:none;stroke:#000000;stroke-width:0.44308123;stroke-miterlimit:1.39999998;stroke-opacity:1;stroke-dasharray:none" /><rect
   width="12.637597"
   height="12.329783"
   rx="0"
   ry="0"
   x="1.6527342"
   y="1.7863197"
   id="rect3831"
   style="opacity:0.2;fill:none;stroke:#000000;stroke-width:0.41514888;stroke-linejoin:miter;stroke-miterlimit:1.39999998;stroke-opacity:1;stroke-dasharray:none" /><rect
   width="11.871015"
   height="11.563201"
   rx="0"
   ry="0"
   x="2.0096226"
   y="2.1696107"
   id="rect3833"
   style="opacity:0.1;fill:none;stroke:#000000;stroke-width:0.38965198;stroke-linejoin:miter;stroke-miterlimit:1.39999998;stroke-opacity:1;stroke-dasharray:none" /></svg>