<?xml version="1.0" encoding="UTF-8" standalone="no"?>
<!-- Created with Inkscape (http://www.inkscape.org/) -->

<svg
   xmlns:dc="http://purl.org/dc/elements/1.1/"
   xmlns:cc="http://creativecommons.org/ns#"
   xmlns:rdf="http://www.w3.org/1999/02/22-rdf-syntax-ns#"
   xmlns:svg="http://www.w3.org/2000/svg"
   xmlns="http://www.w3.org/2000/svg"
   xmlns:xlink="http://www.w3.org/1999/xlink"
   version="1.1"
   width="64"
   height="22"
   id="svg3273">
  <defs
     id="defs3275">
    <linearGradient
       id="linearGradient4095">
      <stop
         id="stop4097"
         style="stop-color:#131313;stop-opacity:1"
         offset="0" />
      <stop
         id="stop4099"
         style="stop-color:#131313;stop-opacity:0"
         offset="1" />
    </linearGradient>
    <linearGradient
       id="linearGradient4054">
      <stop
         id="stop4056"
         style="stop-color:#cdcdcd;stop-opacity:1"
         offset="0" />
      <stop
         id="stop4058"
         style="stop-color:#f9f9f9;stop-opacity:1"
         offset="1" />
    </linearGradient>
    <linearGradient
       x1="-47.059258"
       y1="20.14957"
       x2="-46.978706"
       y2="1.0181593"
       id="linearGradient4060"
       xlink:href="#linearGradient4054"
       gradientUnits="userSpaceOnUse"
       gradientTransform="matrix(0.9757771,0,0,0.98628529,-0.65140489,0.09987579)" />
    <linearGradient
       x1="-17.784681"
       y1="9.8260183"
       x2="-11.504409"
       y2="9.6024895"
       id="linearGradient4101"
       xlink:href="#linearGradient4095"
       gradientUnits="userSpaceOnUse"
       gradientTransform="matrix(0.88797735,0,0,0.87902198,-19.10437,2.3346908)" />
  </defs>
  <metadata
     id="metadata3278">
    <rdf:RDF>
      <cc:Work
         rdf:about="">
        <dc:format>image/svg+xml</dc:format>
        <dc:type
           rdf:resource="http://purl.org/dc/dcmitype/StillImage" />
        <dc:title></dc:title>
      </cc:Work>
    </rdf:RDF>
  </metadata>
  <rect
     width="63.000004"
     height="19"
     rx="4"
     ry="4"
     x="-63.5"
     y="1.5"
     transform="scale(-1,1)"
     id="rect17456"
     style="color:#000000;fill:#7ca3be;fill-opacity:1;stroke:#ffffff;stroke-width:0.99999994;stroke-linecap:round;stroke-linejoin:miter;stroke-miterlimit:4;stroke-opacity:1;stroke-dasharray:none;stroke-dashoffset:0;marker:none;visibility:visible;display:inline;overflow:visible;enable-background:accumulate" />
  <rect
     width="60.840481"
     height="16.177473"
     rx="2.6128852"
     ry="2.7635591"
     x="-62.584652"
     y="3.0027394"
     transform="scale(-1,1)"
     id="rect4103"
     style="opacity:0.43421056;color:#000000;fill:none;stroke:#000000;stroke-width:0.61934114;stroke-linecap:round;stroke-linejoin:miter;stroke-miterlimit:4;stroke-opacity:1;stroke-dasharray:none;stroke-dashoffset:0;marker:none;visibility:visible;display:inline;overflow:visible;enable-background:accumulate" />
  <rect
     width="59.68565"
     height="13.790699"
     rx="1.3371154"
     ry="1.6610882"
     x="-62.611137"
     y="4.2082047"
     transform="scale(-1,1)"
     id="rect4306"
     style="opacity:0.11403509;color:#000000;fill:none;stroke:#000000;stroke-width:0.56637794;stroke-linecap:round;stroke-linejoin:miter;stroke-miterlimit:4;stroke-opacity:1;stroke-dasharray:none;stroke-dashoffset:0;marker:none;visibility:visible;display:inline;overflow:visible;enable-background:accumulate" />
  <rect
     width="61.394192"
     height="17.407545"
     rx="3.2216806"
     ry="3.1816299"
     x="-62.571636"
     y="2.3877039"
     transform="scale(-1,1)"
     id="rect3996"
     style="opacity:0.5482456;color:#000000;fill:none;stroke:#000000;stroke-width:0.64537281;stroke-linecap:round;stroke-linejoin:miter;stroke-miterlimit:4;stroke-opacity:1;stroke-dasharray:none;stroke-dashoffset:0;marker:none;visibility:visible;display:inline;overflow:visible;enable-background:accumulate" />
  <rect
     width="60.239368"
     height="14.948313"
     rx="1.9590181"
     ry="2.1670914"
     x="-62.598125"
     y="3.6173201"
     transform="scale(-1,1)"
     id="rect4105"
     style="opacity:0.27192987;color:#000000;fill:none;stroke:#000000;stroke-width:0.5923993;stroke-linecap:round;stroke-linejoin:miter;stroke-miterlimit:4;stroke-opacity:1;stroke-dasharray:none;stroke-dashoffset:0;marker:none;visibility:visible;display:inline;overflow:visible;enable-background:accumulate" />
  <rect
     width="27.527298"
     height="17.580441"
     rx="3.5519094"
     ry="3.516088"
     x="-57.54575"
     y="2.0835137"
     transform="scale(-1,1)"
     id="rect4062"
     style="fill:url(#linearGradient4101);fill-opacity:1;stroke:none;display:inline" />
  <rect
     width="32.057007"
     height="21.6308"
     rx="4.1363883"
     ry="4.32616"
     x="-63.865353"
     y="0.066622458"
     transform="scale(-1,1)"
     id="rect4093"
     style="fill:#131313;fill-opacity:0.43902438;stroke:none;display:inline" />
  <rect
     width="30.24909"
     height="19.725706"
     rx="3.9031086"
     ry="3.9451411"
     x="-62.975956"
     y="0.96162629"
     transform="scale(-1,1)"
     id="rect17458"
     style="fill:url(#linearGradient4060);fill-opacity:1;stroke:none;display:inline" />
  <rect
     width="29.531958"
     height="18.837765"
     rx="3.8105752"
     ry="3.7675531"
     x="-62.583225"
     y="1.3885157"
     transform="scale(-1,1)"
     id="rect4145"
     style="fill:none;stroke:#ffffff;stroke-width:0.96558022;stroke-opacity:1;display:inline" />
  <g
     transform="matrix(0.54291834,0,0,1.8418976,-0.85102044,-0.11663463)"
     id="g4256"
     style="font-size:10.1541729px;font-style:normal;font-variant:normal;font-weight:normal;font-stretch:normal;line-height:125%;letter-spacing:0px;word-spacing:0px;fill:#ffffff;fill-opacity:1;stroke:none;font-family:Aller;-inkscape-font-specification:Aller">
    <path
       d="m 85.146653,3.3181468 c 0.03384,0.1895502 0.05076,0.3452473 0.05077,0.467092 -6e-6,0.094777 -0.0034,0.1861649 -0.01015,0.2741627 -0.0068,0.081238 -0.01693,0.1557021 -0.03046,0.2233918 l -3.330569,1.2895799 3.330569,1.2388091 c 0.01353,0.074466 0.02369,0.1523147 0.03046,0.233546 0.0068,0.081235 0.01015,0.1624686 0.01015,0.2437001 -6e-6,0.1015435 -0.0034,0.1963156 -0.01015,0.2843169 -0.0068,0.088004 -0.02031,0.1726223 -0.04062,0.2538543 L 80.922517,6.1105444 c -0.04062,-0.1692331 -0.06093,-0.3553927 -0.06092,-0.5584795 -10e-7,-0.1827714 0.02031,-0.3553922 0.06092,-0.5178628 l 4.224136,-1.7160553"
       id="path4258"
       style="fill:#ffffff;fill-opacity:1" />
  </g>
  <g
     transform="matrix(0.54291834,0,0,1.8418976,-1.7392192,-0.04831165)"
     id="text4166"
     style="font-size:10.1541729px;font-style:normal;font-variant:normal;font-weight:normal;font-stretch:normal;line-height:125%;letter-spacing:0px;word-spacing:0px;opacity:0.80701755;fill:#686868;fill-opacity:1;stroke:none;font-family:Aller;-inkscape-font-specification:Aller">
    <path
       d="m 85.146653,3.3181468 c 0.03384,0.1895502 0.05076,0.3452473 0.05077,0.467092 -6e-6,0.094777 -0.0034,0.1861649 -0.01015,0.2741627 -0.0068,0.081238 -0.01693,0.1557021 -0.03046,0.2233918 l -3.330569,1.2895799 3.330569,1.2388091 c 0.01353,0.074466 0.02369,0.1523147 0.03046,0.233546 0.0068,0.081235 0.01015,0.1624686 0.01015,0.2437001 -6e-6,0.1015435 -0.0034,0.1963156 -0.01015,0.2843169 -0.0068,0.088004 -0.02031,0.1726223 -0.04062,0.2538543 L 80.922517,6.1105444 c -0.04062,-0.1692331 -0.06093,-0.3553927 -0.06092,-0.5584795 -10e-7,-0.1827714 0.02031,-0.3553922 0.06092,-0.5178628 l 4.224136,-1.7160553"
       id="path4204" />
  </g>
  <g
     transform="matrix(0.54291834,0,0,1.8418976,3.5899733,0.22498028)"
     id="g4260"
     style="font-size:10.1541729px;font-style:normal;font-variant:normal;font-weight:normal;font-stretch:normal;line-height:125%;letter-spacing:0px;word-spacing:0px;fill:#ffffff;fill-opacity:1;stroke:none;font-family:Aller;-inkscape-font-specification:Aller">
    <path
       d="m 85.146653,3.3181468 c 0.03384,0.1895502 0.05076,0.3452473 0.05077,0.467092 -6e-6,0.094777 -0.0034,0.1861649 -0.01015,0.2741627 -0.0068,0.081238 -0.01693,0.1557021 -0.03046,0.2233918 l -3.330569,1.2895799 3.330569,1.2388091 c 0.01353,0.074466 0.02369,0.1523147 0.03046,0.233546 0.0068,0.081235 0.01015,0.1624686 0.01015,0.2437001 -6e-6,0.1015435 -0.0034,0.1963156 -0.01015,0.2843169 -0.0068,0.088004 -0.02031,0.1726223 -0.04062,0.2538543 L 80.922517,6.1105444 c -0.04062,-0.1692331 -0.06093,-0.3553927 -0.06092,-0.5584795 -10e-7,-0.1827714 0.02031,-0.3553922 0.06092,-0.5178628 l 4.224136,-1.7160553"
       id="path4262"
       style="fill:#ffffff;fill-opacity:1" />
  </g>
  <g
     transform="matrix(0.54291834,0,0,1.8418976,-0.3381815,0.04831164)"
     id="text4170"
     style="font-size:10.1541729px;font-style:normal;font-variant:normal;font-weight:normal;font-stretch:normal;line-height:125%;letter-spacing:0px;word-spacing:0px;opacity:0.81578944;fill:#686868;fill-opacity:1;stroke:none;font-family:Aller;-inkscape-font-specification:Aller">
    <path
       d="m 91.375613,3.4755222 c 0.03384,0.1895501 0.05076,0.3452473 0.05077,0.4670919 -5e-6,0.094778 -0.0034,0.186165 -0.01015,0.2741627 -0.0068,0.081238 -0.01693,0.1557022 -0.03046,0.2233918 l -3.330569,1.28958 3.330569,1.2388091 c 0.01353,0.074466 0.02369,0.1523147 0.03046,0.2335459 0.0068,0.081235 0.01015,0.1624687 0.01015,0.2437002 -5e-6,0.1015434 -0.0034,0.1963156 -0.01015,0.2843168 -0.0068,0.088004 -0.02031,0.1726223 -0.04062,0.2538543 L 87.151477,6.2679197 c -0.04062,-0.1692331 -0.06093,-0.3553927 -0.06092,-0.5584795 -10e-7,-0.1827714 0.02031,-0.3553922 0.06092,-0.5178628 l 4.224136,-1.7160552"
       id="path4201" />
  </g>
  <g
     transform="matrix(0.54291834,0,0,1.8418976,8.6458739,0.36162624)"
     id="g4264"
     style="font-size:10.1541729px;font-style:normal;font-variant:normal;font-weight:normal;font-stretch:normal;line-height:125%;letter-spacing:0px;word-spacing:0px;fill:#ffffff;fill-opacity:1;stroke:none;font-family:Aller;-inkscape-font-specification:Aller">
    <path
       d="m 85.146653,3.3181468 c 0.03384,0.1895502 0.05076,0.3452473 0.05077,0.467092 -6e-6,0.094777 -0.0034,0.1861649 -0.01015,0.2741627 -0.0068,0.081238 -0.01693,0.1557021 -0.03046,0.2233918 l -3.330569,1.2895799 3.330569,1.2388091 c 0.01353,0.074466 0.02369,0.1523147 0.03046,0.233546 0.0068,0.081235 0.01015,0.1624686 0.01015,0.2437001 -6e-6,0.1015435 -0.0034,0.1963156 -0.01015,0.2843169 -0.0068,0.088004 -0.02031,0.1726223 -0.04062,0.2538543 L 80.922517,6.1105444 c -0.04062,-0.1692331 -0.06093,-0.3553927 -0.06092,-0.5584795 -10e-7,-0.1827714 0.02031,-0.3553922 0.06092,-0.5178628 l 4.224136,-1.7160553"
       id="path4266"
       style="fill:#ffffff;fill-opacity:1" />
  </g>
  <g
     transform="matrix(0.54291834,0,0,1.8418976,2.8020753,-0.14493494)"
     id="text4174"
     style="font-size:10.1541729px;font-style:normal;font-variant:normal;font-weight:normal;font-stretch:normal;line-height:125%;letter-spacing:0px;word-spacing:0px;opacity:0.85087717;fill:#686868;fill-opacity:1;stroke:none;font-family:Aller;-inkscape-font-specification:Aller">
    <path
       d="m 94.757043,3.4230634 c 0.03384,0.1895501 0.05076,0.3452473 0.05077,0.467092 -5e-6,0.094777 -0.0034,0.1861649 -0.01015,0.2741626 -0.0068,0.081238 -0.01693,0.1557022 -0.03046,0.2233918 l -3.330569,1.28958 3.330569,1.2388091 c 0.01353,0.074466 0.02369,0.1523147 0.03046,0.233546 0.0068,0.081235 0.01015,0.1624686 0.01015,0.2437001 -5e-6,0.1015434 -0.0034,0.1963156 -0.01015,0.2843169 -0.0068,0.088004 -0.02031,0.1726222 -0.04062,0.2538543 L 90.532907,6.215461 c -0.04062,-0.1692331 -0.06093,-0.3553928 -0.06092,-0.5584795 -10e-7,-0.1827715 0.02031,-0.3553922 0.06092,-0.5178629 l 4.224136,-1.7160552"
       id="path4198" />
  </g>
  <g
     id="text4331"
     style="font-size:11px;font-style:normal;font-variant:normal;font-weight:bold;font-stretch:normal;line-height:125%;letter-spacing:0px;word-spacing:0px;opacity:0.85087717;fill:#ffffff;fill-opacity:1;stroke:none;font-family:Aller;-inkscape-font-specification:Aller Bold">
    <path
       d="m 12.055112,15.368025 c -0.594004,0 -1.107336,-0.102667 -1.54,-0.308 -0.432669,-0.205333 -0.7883351,-0.487666 -1.0670001,-0.847 -0.2786678,-0.366665 -0.4876676,-0.795665 -0.627,-1.287 -0.1320007,-0.498664 -0.1980006,-1.04133 -0.198,-1.628 -6e-7,-0.586662 0.065999,-1.129328 0.198,-1.6280001 0.1393324,-0.505994 0.3483322,-0.9423269 0.627,-1.309 0.278665,-0.3666595 0.6343311,-0.6526592 1.0670001,-0.858 0.432664,-0.2053254 0.945996,-0.307992 1.54,-0.308 0.593995,8e-6 1.107328,0.1026746 1.54,0.308 0.432661,0.2053408 0.788327,0.4913405 1.067,0.858 0.27866,0.3666731 0.483993,0.803006 0.616,1.309 0.139326,0.4986721 0.208992,1.0413381 0.209,1.6280001 -8e-6,0.58667 -0.06967,1.129336 -0.209,1.628 -0.132007,0.491335 -0.33734,0.920335 -0.616,1.287 -0.278673,0.359334 -0.634339,0.641667 -1.067,0.847 -0.432672,0.205333 -0.946005,0.308 -1.54,0.308 m 0,-1.342 c 1.136661,10e-7 1.704994,-0.909331 1.705,-2.728 -6e-6,-0.909329 -0.139339,-1.5913279 -0.418,-2.0460001 -0.271338,-0.4546603 -0.696671,-0.6819934 -1.276,-0.682 -1.151336,6.6e-6 -1.727002,0.909339 -1.727,2.7280001 -2e-6,1.818669 0.571997,2.728001 1.716,2.728"
       id="path5134" />
    <path
       d="m 16.824299,7.3270249 c 0.227333,-0.043992 0.443666,-0.065992 0.649,-0.066 0.219999,7.9e-6 0.447332,0.022008 0.682,0.066 l 3.058,5.0380001 0,-5.0380001 c 0.263995,-0.043992 0.516995,-0.065992 0.759,-0.066 0.227328,7.9e-6 0.447327,0.022008 0.66,0.066 l 0,7.9090001 c -0.234673,0.044 -0.447339,0.066 -0.638,0.066 -0.205339,0 -0.429005,-0.022 -0.671,-0.066 l -3.08,-5.027 0,5.027 c -0.234668,0.044 -0.473001,0.066 -0.715,0.066 -0.242001,0 -0.476667,-0.022 -0.704,-0.066 l 0,-7.9090001"
       id="path5136" />
  </g>
  <g
     id="text4327"
     style="font-size:11px;font-style:normal;font-variant:normal;font-weight:bold;font-stretch:normal;line-height:125%;letter-spacing:0px;word-spacing:0px;fill:#1b1b1b;fill-opacity:1;stroke:none;font-family:Aller;-inkscape-font-specification:Aller Bold">
    <path
       d="m 12.055112,14.753119 c -0.594004,-10e-7 -1.107336,-0.102667 -1.54,-0.308 -0.432669,-0.205333 -0.7883351,-0.487666 -1.0670001,-0.847 -0.2786678,-0.366666 -0.4876676,-0.795665 -0.627,-1.287 -0.1320007,-0.498664 -0.1980006,-1.04133 -0.198,-1.628 -6e-7,-0.586663 0.065999,-1.1293287 0.198,-1.6280005 0.1393324,-0.5059939 0.3483322,-0.9423268 0.627,-1.309 0.278665,-0.3666594 0.6343311,-0.6526591 1.0670001,-0.858 0.432664,-0.2053253 0.945996,-0.3079919 1.54,-0.308 0.593995,8.1e-6 1.107328,0.1026747 1.54,0.308 0.432661,0.2053409 0.788327,0.4913406 1.067,0.858 0.27866,0.3666732 0.483993,0.8030061 0.616,1.309 0.139326,0.4986718 0.208992,1.0413375 0.209,1.6280005 -8e-6,0.58667 -0.06967,1.129336 -0.209,1.628 -0.132007,0.491335 -0.33734,0.920334 -0.616,1.287 -0.278673,0.359334 -0.634339,0.641667 -1.067,0.847 -0.432672,0.205333 -0.946005,0.307999 -1.54,0.308 m 0,-1.342 c 1.136661,1e-6 1.704994,-0.909332 1.705,-2.728 -6e-6,-0.9093289 -0.139339,-1.5913283 -0.418,-2.0460005 -0.271338,-0.4546602 -0.696671,-0.6819933 -1.276,-0.682 -1.151336,6.7e-6 -1.727002,0.9093391 -1.727,2.7280005 -2e-6,1.818668 0.571997,2.728001 1.716,2.728"
       id="path5129"
       style="fill:#1b1b1b" />
    <path
       d="m 16.824299,6.7121185 c 0.227333,-0.043992 0.443666,-0.065992 0.649,-0.066 0.219999,8e-6 0.447332,0.022008 0.682,0.066 l 3.058,5.0380005 0,-5.0380005 c 0.263995,-0.043992 0.516995,-0.065992 0.759,-0.066 0.227328,8e-6 0.447327,0.022008 0.66,0.066 l 0,7.9090005 c -0.234673,0.044 -0.447339,0.066 -0.638,0.066 -0.205339,-10e-7 -0.429005,-0.022 -0.671,-0.066 l -3.08,-5.0270005 0,5.0270005 c -0.234668,0.044 -0.473001,0.066 -0.715,0.066 -0.242001,-10e-7 -0.476667,-0.022 -0.704,-0.066 l 0,-7.9090005"
       id="path5131"
       style="fill:#1b1b1b" />
  </g>
</svg>
